<?xml version="1.0" encoding="UTF-8" standalone="no"?>
<!DOCTYPE svg PUBLIC "-//W3C//DTD SVG 1.1//EN"
 "http://www.w3.org/Graphics/SVG/1.1/DTD/svg11.dtd">
<!-- Generated by graphviz version 6.0.1 (20220911.1526)
 -->
<!-- Title: G Pages: 1 -->
<svg width="1899pt" height="831pt"
 viewBox="0.00 0.00 1899.00 831.34" xmlns="http://www.w3.org/2000/svg" xmlns:xlink="http://www.w3.org/1999/xlink">
<g id="graph0" class="graph" transform="scale(1 1) rotate(0) translate(4 827.34)">
<title>G</title>
<polygon fill="white" stroke="none" points="-4,4 -4,-827.34 1895,-827.34 1895,4 -4,4"/>
<g id="clust2" class="cluster">
<title>cluster_StMS1</title>
<polygon fill="none" stroke="black" points="407,-8 407,-356.5 713,-356.5 713,-8 407,-8"/>
<text text-anchor="middle" x="560" y="-30.8" font-family="Times,serif" font-size="14.00">Single visit occupancy model</text>
<text text-anchor="middle" x="560" y="-15.8" font-family="Times,serif" font-size="14.00">Stachowicz et al. In prep.</text>
</g>
<g id="clust3" class="cluster">
<title>cluster_spatial</title>
<polygon fill="none" stroke="black" points="279,-614.34 279,-815.34 687,-815.34 687,-614.34 279,-614.34"/>
</g>
<g id="clust4" class="cluster">
<title>cluster_interviews</title>
<polygon fill="none" stroke="black" points="8,-614.34 8,-815.34 223,-815.34 223,-614.34 8,-614.34"/>
</g>
<g id="clust5" class="cluster">
<title>cluster_kavanayen</title>
<polygon fill="none" stroke="black" points="1293,-393.5 1293,-667.34 1883,-667.34 1883,-393.5 1293,-393.5"/>
</g>
<g id="clust6" class="cluster">
<title>cluster_warapata</title>
<polygon fill="none" stroke="black" points="695,-502.67 695,-741.34 1285,-741.34 1285,-502.67 695,-502.67"/>
</g>
<g id="clust7" class="cluster">
<title>cluster_covars</title>
<polygon fill="none" stroke="black" points="94,-474 94,-606.34 612,-606.34 612,-474 94,-474"/>
<text text-anchor="middle" x="353" y="-591.14" font-family="Times,serif" font-size="14.00">spatial covariates</text>
</g>
<!-- SVOC1 -->
<g id="node1" class="node">
<title>SVOC1</title>
<polygon fill="#eac2c5" stroke="#eac2c5" points="699,-348.5 433,-348.5 433,-312.5 699,-312.5 699,-348.5"/>
<text text-anchor="middle" x="566" y="-326.8" font-family="Times,serif" font-size="14.00">Model 1: Warapata / Camera Traps</text>
</g>
<!-- SVOC2 -->
<g id="node2" class="node">
<title>SVOC2</title>
<polygon fill="#eac2c5" stroke="#eac2c5" points="704.5,-259.5 423.5,-259.5 423.5,-223.5 704.5,-223.5 704.5,-259.5"/>
<text text-anchor="middle" x="564" y="-237.8" font-family="Times,serif" font-size="14.00">Model 2: Wara+Kava / Camera Traps</text>
</g>
<!-- SVOC1&#45;&gt;SVOC2 -->
<!-- SVOC3 -->
<g id="node3" class="node">
<title>SVOC3</title>
<polygon fill="#eac2c5" stroke="#eac2c5" points="697,-170.5 423,-170.5 423,-134.5 697,-134.5 697,-170.5"/>
<text text-anchor="middle" x="560" y="-148.8" font-family="Times,serif" font-size="14.00">Model 3: Warapata / Camera + Obs.</text>
</g>
<!-- SVOC2&#45;&gt;SVOC3 -->
<!-- SVOC4 -->
<g id="node4" class="node">
<title>SVOC4</title>
<polygon fill="#eac2c5" stroke="#eac2c5" points="705,-90 415,-90 415,-54 705,-54 705,-90"/>
<text text-anchor="middle" x="560" y="-68.3" font-family="Times,serif" font-size="14.00">Model 4: Wara+Kava / Camera + Obs.</text>
</g>
<!-- SVOC3&#45;&gt;SVOC4 -->
<!-- SITE_COVARS -->
<g id="node5" class="node">
<title>SITE_COVARS</title>
<polygon fill="#eac2c5" stroke="#eac2c5" points="456.5,-437.5 333.5,-437.5 333.5,-401.5 456.5,-401.5 456.5,-437.5"/>
<text text-anchor="middle" x="395" y="-415.8" font-family="Times,serif" font-size="14.00">Site covariates</text>
</g>
<!-- SITE_COVARS&#45;&gt;SVOC1 -->
<g id="edge59" class="edge">
<title>SITE_COVARS&#45;&gt;SVOC1</title>
<path fill="none" stroke="black" d="M428.78,-401.31C455.92,-387.5 494.2,-368.03 523.43,-353.16"/>
<polygon fill="black" stroke="black" points="525.25,-356.16 532.58,-348.5 522.08,-349.92 525.25,-356.16"/>
</g>
<!-- SITE_COVARS&#45;&gt;SVOC2 -->
<g id="edge60" class="edge">
<title>SITE_COVARS&#45;&gt;SVOC2</title>
<path fill="none" stroke="black" d="M395,-329.5C408.14,-296.58 440,-275.97 472.56,-263.14"/>
<polygon fill="black" stroke="black" points="474.04,-266.32 482.2,-259.56 471.61,-259.76 474.04,-266.32"/>
</g>
<!-- SITE_COVARS&#45;&gt;SVOC3 -->
<g id="edge61" class="edge">
<title>SITE_COVARS&#45;&gt;SVOC3</title>
<path fill="none" stroke="black" d="M395,-240.5C407.86,-207.71 439.58,-187.08 471.8,-174.19"/>
<polygon fill="black" stroke="black" points="473.22,-177.4 481.35,-170.6 470.75,-170.85 473.22,-177.4"/>
</g>
<!-- SITE_COVARS&#45;&gt;SVOC4 -->
<g id="edge62" class="edge">
<title>SITE_COVARS&#45;&gt;SVOC4</title>
<path fill="none" stroke="black" d="M391.39,-401.45C388.37,-383.38 385.87,-354.37 395,-331.5"/>
<path fill="none" stroke="black" d="M395,-329.5C409.33,-293.59 380.88,-278.5 395,-242.5"/>
<path fill="none" stroke="black" d="M395,-240.5C413.83,-192.48 381.03,-165.67 414,-126 425.71,-111.92 441.48,-101.57 458.34,-93.98"/>
<polygon fill="black" stroke="black" points="459.91,-97.12 467.79,-90.04 457.22,-90.65 459.91,-97.12"/>
</g>
<!-- OCC1 -->
<g id="node6" class="node">
<title>OCC1</title>
<polygon fill="#eac2c5" stroke="#eac2c5" points="991.5,-446 884.5,-446 884.5,-393 991.5,-393 991.5,-446"/>
<text text-anchor="middle" x="938" y="-430.8" font-family="Times,serif" font-size="14.00">Camera trap</text>
<text text-anchor="middle" x="938" y="-415.8" font-family="Times,serif" font-size="14.00">Occurrence</text>
<text text-anchor="middle" x="938" y="-400.8" font-family="Times,serif" font-size="14.00">(W)</text>
</g>
<!-- OCC1&#45;&gt;SVOC1 -->
<g id="edge47" class="edge">
<title>OCC1&#45;&gt;SVOC1</title>
<path fill="none" stroke="black" d="M884.44,-397.52C879.59,-395.89 874.73,-394.36 870,-393 832.8,-382.34 741.53,-364.26 668.64,-350.45"/>
<polygon fill="black" stroke="black" points="668.96,-346.95 658.49,-348.54 667.67,-353.83 668.96,-346.95"/>
</g>
<!-- OCC2 -->
<g id="node7" class="node">
<title>OCC2</title>
<polygon fill="#eac2c5" stroke="#eac2c5" points="991.5,-357 884.5,-357 884.5,-304 991.5,-304 991.5,-357"/>
<text text-anchor="middle" x="938" y="-341.8" font-family="Times,serif" font-size="14.00">Camera trap</text>
<text text-anchor="middle" x="938" y="-326.8" font-family="Times,serif" font-size="14.00">Occurrence</text>
<text text-anchor="middle" x="938" y="-311.8" font-family="Times,serif" font-size="14.00">(W+K)</text>
</g>
<!-- OCC1&#45;&gt;OCC2 -->
<!-- OCC2&#45;&gt;SVOC2 -->
<g id="edge50" class="edge">
<title>OCC2&#45;&gt;SVOC2</title>
<path fill="none" stroke="black" d="M884.44,-308.51C879.59,-306.88 874.73,-305.35 870,-304 808.07,-286.29 737.67,-271.76 680.03,-261.29"/>
<polygon fill="black" stroke="black" points="680.62,-257.84 670.16,-259.51 679.38,-264.73 680.62,-257.84"/>
</g>
<!-- OCC3 -->
<g id="node8" class="node">
<title>OCC3</title>
<polygon fill="#eac2c5" stroke="#eac2c5" points="1048.5,-268 949.5,-268 949.5,-215 1048.5,-215 1048.5,-268"/>
<text text-anchor="middle" x="999" y="-252.8" font-family="Times,serif" font-size="14.00">CT and Obs</text>
<text text-anchor="middle" x="999" y="-237.8" font-family="Times,serif" font-size="14.00">Occurrence</text>
<text text-anchor="middle" x="999" y="-222.8" font-family="Times,serif" font-size="14.00">(W)</text>
</g>
<!-- OCC2&#45;&gt;OCC3 -->
<!-- OCC3&#45;&gt;SVOC3 -->
<g id="edge53" class="edge">
<title>OCC3&#45;&gt;SVOC3</title>
<path fill="none" stroke="black" d="M949.49,-230.69C878.49,-216.62 746.35,-190.43 655.84,-172.49"/>
<polygon fill="black" stroke="black" points="656.33,-169.02 645.84,-170.51 654.97,-175.89 656.33,-169.02"/>
</g>
<!-- OCC4 -->
<g id="node9" class="node">
<title>OCC4</title>
<polygon fill="#eac2c5" stroke="#eac2c5" points="1164.5,-179 1065.5,-179 1065.5,-126 1164.5,-126 1164.5,-179"/>
<text text-anchor="middle" x="1115" y="-163.8" font-family="Times,serif" font-size="14.00">CT and Obs</text>
<text text-anchor="middle" x="1115" y="-148.8" font-family="Times,serif" font-size="14.00">Occurrence</text>
<text text-anchor="middle" x="1115" y="-133.8" font-family="Times,serif" font-size="14.00">(W+K)</text>
</g>
<!-- OCC3&#45;&gt;OCC4 -->
<!-- OCC4&#45;&gt;SVOC4 -->
<g id="edge58" class="edge">
<title>OCC4&#45;&gt;SVOC4</title>
<path fill="none" stroke="black" d="M1065.24,-141.17C1040.31,-136.2 1009.63,-130.38 982,-126 894.05,-112.06 795.32,-99.49 715.48,-90.1"/>
<polygon fill="black" stroke="black" points="715.68,-86.6 705.34,-88.91 714.87,-93.55 715.68,-86.6"/>
</g>
<!-- VISIT_COVAR1 -->
<g id="node10" class="node">
<title>VISIT_COVAR1</title>
<polygon fill="#eac2c5" stroke="#eac2c5" points="819.5,-446 712.5,-446 712.5,-393 819.5,-393 819.5,-446"/>
<text text-anchor="middle" x="766" y="-430.8" font-family="Times,serif" font-size="14.00">Camera trap</text>
<text text-anchor="middle" x="766" y="-415.8" font-family="Times,serif" font-size="14.00">effort</text>
<text text-anchor="middle" x="766" y="-400.8" font-family="Times,serif" font-size="14.00">(W)</text>
</g>
<!-- VISIT_COVAR1&#45;&gt;SVOC1 -->
<g id="edge34" class="edge">
<title>VISIT_COVAR1&#45;&gt;SVOC1</title>
<path fill="none" stroke="black" d="M712.4,-395.19C681.92,-381.92 644.04,-365.45 614.44,-352.57"/>
<polygon fill="black" stroke="black" points="615.71,-349.31 605.15,-348.53 612.92,-355.73 615.71,-349.31"/>
</g>
<!-- VISIT_COVAR2 -->
<g id="node11" class="node">
<title>VISIT_COVAR2</title>
<polygon fill="#eac2c5" stroke="#eac2c5" points="827.5,-357 720.5,-357 720.5,-304 827.5,-304 827.5,-357"/>
<text text-anchor="middle" x="774" y="-341.8" font-family="Times,serif" font-size="14.00">Camera trap</text>
<text text-anchor="middle" x="774" y="-326.8" font-family="Times,serif" font-size="14.00">effort</text>
<text text-anchor="middle" x="774" y="-311.8" font-family="Times,serif" font-size="14.00">(W+K)</text>
</g>
<!-- VISIT_COVAR1&#45;&gt;VISIT_COVAR2 -->
<!-- VISIT_COVAR2&#45;&gt;SVOC2 -->
<g id="edge37" class="edge">
<title>VISIT_COVAR2&#45;&gt;SVOC2</title>
<path fill="none" stroke="black" d="M720.32,-305.42C719.21,-304.94 718.1,-304.47 717,-304 683.95,-289.97 646.56,-274.92 617.01,-263.23"/>
<polygon fill="black" stroke="black" points="618.3,-259.97 607.71,-259.55 615.72,-266.48 618.3,-259.97"/>
</g>
<!-- VISIT_COVAR3 -->
<g id="node12" class="node">
<title>VISIT_COVAR3</title>
<polygon fill="#eac2c5" stroke="#eac2c5" points="827.5,-268 742.5,-268 742.5,-215 827.5,-215 827.5,-268"/>
<text text-anchor="middle" x="785" y="-252.8" font-family="Times,serif" font-size="14.00">CT + Obs</text>
<text text-anchor="middle" x="785" y="-237.8" font-family="Times,serif" font-size="14.00">effort</text>
<text text-anchor="middle" x="785" y="-222.8" font-family="Times,serif" font-size="14.00">(W)</text>
</g>
<!-- VISIT_COVAR2&#45;&gt;VISIT_COVAR3 -->
<!-- VISIT_COVAR3&#45;&gt;SVOC3 -->
<g id="edge40" class="edge">
<title>VISIT_COVAR3&#45;&gt;SVOC3</title>
<path fill="none" stroke="black" d="M742.41,-224.03C706.01,-209.96 653.41,-189.62 614.04,-174.4"/>
<polygon fill="black" stroke="black" points="614.92,-170.98 604.33,-170.64 612.4,-177.51 614.92,-170.98"/>
</g>
<!-- VISIT_COVAR4 -->
<g id="node13" class="node">
<title>VISIT_COVAR4</title>
<polygon fill="#eac2c5" stroke="#eac2c5" points="972.5,-179 887.5,-179 887.5,-126 972.5,-126 972.5,-179"/>
<text text-anchor="middle" x="930" y="-163.8" font-family="Times,serif" font-size="14.00">CT + Obs</text>
<text text-anchor="middle" x="930" y="-148.8" font-family="Times,serif" font-size="14.00">effort</text>
<text text-anchor="middle" x="930" y="-133.8" font-family="Times,serif" font-size="14.00">(W+K)</text>
</g>
<!-- VISIT_COVAR3&#45;&gt;VISIT_COVAR4 -->
<!-- VISIT_COVAR4&#45;&gt;SVOC4 -->
<g id="edge45" class="edge">
<title>VISIT_COVAR4&#45;&gt;SVOC4</title>
<path fill="none" stroke="black" d="M887.19,-142.42C829.58,-130.19 725.62,-108.14 650.31,-92.16"/>
<polygon fill="black" stroke="black" points="650.86,-88.7 640.35,-90.05 649.4,-95.55 650.86,-88.7"/>
</g>
<!-- RS -->
<g id="node14" class="node">
<title>RS</title>
<polygon fill="#aef275" stroke="#aef275" points="631.5,-807.34 464.5,-807.34 464.5,-769.34 631.5,-769.34 631.5,-807.34"/>
<text text-anchor="middle" x="548" y="-792.14" font-family="Times,serif" font-size="14.00">Remote sensing data</text>
<text text-anchor="middle" x="548" y="-777.14" font-family="Times,serif" font-size="14.00">(2000&#45;2021)</text>
</g>
<!-- MODIS -->
<g id="node15" class="node">
<title>MODIS</title>
<polygon fill="#aef275" stroke="#aef275" points="535,-732.34 467,-732.34 467,-696.34 535,-696.34 535,-732.34"/>
<text text-anchor="middle" x="501" y="-710.64" font-family="Times,serif" font-size="14.00">MODIS</text>
</g>
<!-- RS&#45;&gt;MODIS -->
<g id="edge3" class="edge">
<title>RS&#45;&gt;MODIS</title>
<path fill="none" stroke="black" d="M536.14,-769.17C530.62,-760.71 523.95,-750.49 517.91,-741.24"/>
<polygon fill="black" stroke="black" points="520.77,-739.22 512.37,-732.76 514.91,-743.04 520.77,-739.22"/>
</g>
<!-- LANDSAT -->
<g id="node16" class="node">
<title>LANDSAT</title>
<polygon fill="#aef275" stroke="#aef275" points="639,-732.34 553,-732.34 553,-696.34 639,-696.34 639,-732.34"/>
<text text-anchor="middle" x="596" y="-710.64" font-family="Times,serif" font-size="14.00">LANDSAT</text>
</g>
<!-- RS&#45;&gt;LANDSAT -->
<g id="edge4" class="edge">
<title>RS&#45;&gt;LANDSAT</title>
<path fill="none" stroke="black" d="M560.11,-769.17C565.75,-760.71 572.57,-750.49 578.73,-741.24"/>
<polygon fill="black" stroke="black" points="581.75,-743.02 584.39,-732.76 575.93,-739.13 581.75,-743.02"/>
</g>
<!-- FIRE -->
<g id="node19" class="node">
<title>FIRE</title>
<polygon fill="#aef275" stroke="#aef275" points="385,-658.34 287,-658.34 287,-622.34 385,-622.34 385,-658.34"/>
<text text-anchor="middle" x="336" y="-636.64" font-family="Times,serif" font-size="14.00">Fire events</text>
</g>
<!-- MODIS&#45;&gt;FIRE -->
<g id="edge1" class="edge">
<title>MODIS&#45;&gt;FIRE</title>
<path fill="none" stroke="black" d="M466.73,-698.76C445.7,-689.78 418.25,-677.99 394,-667.34 390.41,-665.76 386.7,-664.12 382.97,-662.47"/>
<polygon fill="black" stroke="black" points="384.27,-659.22 373.71,-658.35 381.43,-665.61 384.27,-659.22"/>
</g>
<!-- DFOR -->
<g id="node17" class="node">
<title>DFOR</title>
<polygon fill="#aef275" stroke="#aef275" points="679,-658.34 513,-658.34 513,-622.34 679,-622.34 679,-658.34"/>
<text text-anchor="middle" x="596" y="-636.64" font-family="Times,serif" font-size="14.00">Deforestation events</text>
</g>
<!-- LANDSAT&#45;&gt;DFOR -->
<g id="edge5" class="edge">
<title>LANDSAT&#45;&gt;DFOR</title>
<path fill="none" stroke="black" d="M596,-696.28C596,-688.15 596,-678.21 596,-669.04"/>
<polygon fill="black" stroke="black" points="599.5,-668.78 596,-658.78 592.5,-668.78 599.5,-668.78"/>
</g>
<!-- FRST -->
<g id="node18" class="node">
<title>FRST</title>
<polygon fill="#aef275" stroke="#aef275" points="495,-658.34 403,-658.34 403,-622.34 495,-622.34 495,-658.34"/>
<text text-anchor="middle" x="449" y="-636.64" font-family="Times,serif" font-size="14.00">Tree cover</text>
</g>
<!-- LANDSAT&#45;&gt;FRST -->
<g id="edge6" class="edge">
<title>LANDSAT&#45;&gt;FRST</title>
<path fill="none" stroke="black" d="M561.16,-696.28C540.73,-686.27 514.73,-673.53 492.91,-662.84"/>
<polygon fill="black" stroke="black" points="494.36,-659.66 483.84,-658.4 491.28,-665.95 494.36,-659.66"/>
</g>
<!-- DDFR -->
<g id="node41" class="node">
<title>DDFR</title>
<ellipse fill="none" stroke="black" stroke-dasharray="5,2" cx="562" cy="-528.67" rx="41.94" ry="41.94"/>
<text text-anchor="middle" x="562" y="-539.97" font-family="Times,serif" font-size="14.00">dist.</text>
<text text-anchor="middle" x="562" y="-524.97" font-family="Times,serif" font-size="14.00">forest</text>
<text text-anchor="middle" x="562" y="-509.97" font-family="Times,serif" font-size="14.00">loss</text>
</g>
<!-- DFOR&#45;&gt;DDFR -->
<g id="edge10" class="edge">
<title>DFOR&#45;&gt;DDFR</title>
<path fill="none" stroke="black" d="M590.69,-622.2C587.04,-610.43 581.99,-594.16 577.15,-578.54"/>
<polygon fill="black" stroke="black" points="580.48,-577.47 574.18,-568.95 573.8,-579.54 580.48,-577.47"/>
</g>
<!-- PFST -->
<g id="node40" class="node">
<title>PFST</title>
<ellipse fill="none" stroke="black" stroke-dasharray="5,2" cx="461" cy="-528.67" rx="41.94" ry="41.94"/>
<text text-anchor="middle" x="461" y="-532.47" font-family="Times,serif" font-size="14.00">prop.</text>
<text text-anchor="middle" x="461" y="-517.47" font-family="Times,serif" font-size="14.00">forest</text>
</g>
<!-- FRST&#45;&gt;PFST -->
<g id="edge9" class="edge">
<title>FRST&#45;&gt;PFST</title>
<path fill="none" stroke="black" d="M450.88,-622.2C452.11,-610.94 453.79,-595.58 455.43,-580.6"/>
<polygon fill="black" stroke="black" points="458.94,-580.67 456.55,-570.35 451.98,-579.91 458.94,-580.67"/>
</g>
<!-- DFIRE -->
<g id="node42" class="node">
<title>DFIRE</title>
<ellipse fill="none" stroke="black" stroke-dasharray="5,2" cx="362" cy="-528.67" rx="39.7" ry="39.7"/>
<text text-anchor="middle" x="362" y="-539.97" font-family="Times,serif" font-size="14.00">dist.</text>
<text text-anchor="middle" x="362" y="-524.97" font-family="Times,serif" font-size="14.00">fire</text>
<text text-anchor="middle" x="362" y="-509.97" font-family="Times,serif" font-size="14.00">event</text>
</g>
<!-- FIRE&#45;&gt;DFIRE -->
<g id="edge8" class="edge">
<title>FIRE&#45;&gt;DFIRE</title>
<path fill="none" stroke="black" d="M340.06,-622.2C342.92,-610.13 346.91,-593.33 350.69,-577.36"/>
<polygon fill="black" stroke="black" points="354.11,-578.1 353.02,-567.56 347.3,-576.49 354.11,-578.1"/>
</g>
<!-- GIS -->
<g id="node20" class="node">
<title>GIS</title>
<polygon fill="#aef275" stroke="#aef275" points="395,-806.34 341,-806.34 341,-770.34 395,-770.34 395,-806.34"/>
<text text-anchor="middle" x="368" y="-784.64" font-family="Times,serif" font-size="14.00">GIS</text>
</g>
<!-- COMU -->
<g id="node21" class="node">
<title>COMU</title>
<polygon fill="#aef275" stroke="#aef275" points="448.5,-732.34 287.5,-732.34 287.5,-696.34 448.5,-696.34 448.5,-732.34"/>
<text text-anchor="middle" x="368" y="-710.64" font-family="Times,serif" font-size="14.00">Pemon communities</text>
</g>
<!-- GIS&#45;&gt;COMU -->
<g id="edge2" class="edge">
<title>GIS&#45;&gt;COMU</title>
<path fill="none" stroke="black" d="M368,-770.28C368,-762.15 368,-752.21 368,-743.04"/>
<polygon fill="black" stroke="black" points="371.5,-742.78 368,-732.78 364.5,-742.78 371.5,-742.78"/>
</g>
<!-- DCOM -->
<g id="node43" class="node">
<title>DCOM</title>
<ellipse fill="none" stroke="black" stroke-dasharray="5,2" cx="259" cy="-528.67" rx="45.01" ry="45.01"/>
<text text-anchor="middle" x="259" y="-532.47" font-family="Times,serif" font-size="14.00">dist.</text>
<text text-anchor="middle" x="259" y="-517.47" font-family="Times,serif" font-size="14.00">comm.</text>
</g>
<!-- COMU&#45;&gt;DCOM -->
<g id="edge11" class="edge">
<title>COMU&#45;&gt;DCOM</title>
<path fill="none" stroke="black" d="M314.15,-696.17C300.37,-689.3 286.94,-679.93 278,-667.34 261.02,-643.44 255.88,-611.23 255.16,-583.97"/>
<polygon fill="black" stroke="black" points="258.66,-583.76 255.09,-573.79 251.66,-583.81 258.66,-583.76"/>
</g>
<!-- INT -->
<g id="node22" class="node">
<title>INT</title>
<polygon fill="#daeaf2" stroke="#daeaf2" points="197.5,-807.34 32.5,-807.34 32.5,-769.34 197.5,-769.34 197.5,-807.34"/>
<text text-anchor="middle" x="115" y="-792.14" font-family="Times,serif" font-size="14.00">Interviews</text>
<text text-anchor="middle" x="115" y="-777.14" font-family="Times,serif" font-size="14.00">in Pemon comunities</text>
</g>
<!-- INTW -->
<g id="node23" class="node">
<title>INTW</title>
<polygon fill="#daeaf2" stroke="#daeaf2" points="101.5,-733.34 16.5,-733.34 16.5,-695.34 101.5,-695.34 101.5,-733.34"/>
<text text-anchor="middle" x="59" y="-718.14" font-family="Times,serif" font-size="14.00">Warapata</text>
<text text-anchor="middle" x="59" y="-703.14" font-family="Times,serif" font-size="14.00">(2015)</text>
</g>
<!-- INT&#45;&gt;INTW -->
<g id="edge29" class="edge">
<title>INT&#45;&gt;INTW</title>
<path fill="none" stroke="black" d="M100.87,-769.17C94.42,-760.88 86.66,-750.9 79.57,-741.79"/>
<polygon fill="black" stroke="black" points="82.22,-739.5 73.32,-733.75 76.7,-743.79 82.22,-739.5"/>
</g>
<!-- INTK -->
<g id="node24" class="node">
<title>INTK</title>
<polygon fill="#daeaf2" stroke="#daeaf2" points="214.5,-733.34 119.5,-733.34 119.5,-695.34 214.5,-695.34 214.5,-733.34"/>
<text text-anchor="middle" x="167" y="-718.14" font-family="Times,serif" font-size="14.00">Kavanayen</text>
<text text-anchor="middle" x="167" y="-703.14" font-family="Times,serif" font-size="14.00">(2018)</text>
</g>
<!-- INT&#45;&gt;INTK -->
<g id="edge30" class="edge">
<title>INT&#45;&gt;INTK</title>
<path fill="none" stroke="black" d="M128.12,-769.17C134.05,-760.96 141.17,-751.1 147.69,-742.07"/>
<polygon fill="black" stroke="black" points="150.68,-743.91 153.7,-733.75 145.01,-739.81 150.68,-743.91"/>
</g>
<!-- CONU -->
<g id="node25" class="node">
<title>CONU</title>
<polygon fill="#daeaf2" stroke="#daeaf2" points="186,-658.34 112,-658.34 112,-622.34 186,-622.34 186,-658.34"/>
<text text-anchor="middle" x="149" y="-636.64" font-family="Times,serif" font-size="14.00">conucos</text>
</g>
<!-- INTW&#45;&gt;CONU -->
<g id="edge31" class="edge">
<title>INTW&#45;&gt;CONU</title>
<path fill="none" stroke="black" d="M81.71,-695.17C93.13,-686.03 107.12,-674.84 119.38,-665.03"/>
<polygon fill="black" stroke="black" points="121.91,-667.49 127.54,-658.51 117.54,-662.02 121.91,-667.49"/>
</g>
<!-- INTK&#45;&gt;CONU -->
<g id="edge32" class="edge">
<title>INTK&#45;&gt;CONU</title>
<path fill="none" stroke="black" d="M162.46,-695.17C160.45,-687.14 158.05,-677.54 155.83,-668.68"/>
<polygon fill="black" stroke="black" points="159.18,-667.61 153.35,-658.76 152.38,-669.31 159.18,-667.61"/>
</g>
<!-- DCON -->
<g id="node44" class="node">
<title>DCON</title>
<ellipse fill="none" stroke="black" stroke-dasharray="5,2" cx="149" cy="-528.67" rx="46.84" ry="46.84"/>
<text text-anchor="middle" x="149" y="-532.47" font-family="Times,serif" font-size="14.00">dist.</text>
<text text-anchor="middle" x="149" y="-517.47" font-family="Times,serif" font-size="14.00">conuco</text>
</g>
<!-- CONU&#45;&gt;DCON -->
<g id="edge7" class="edge">
<title>CONU&#45;&gt;DCON</title>
<path fill="none" stroke="black" d="M149,-622.2C149,-612.22 149,-599 149,-585.69"/>
<polygon fill="black" stroke="black" points="152.5,-585.54 149,-575.54 145.5,-585.54 152.5,-585.54"/>
</g>
<!-- TRACKK -->
<g id="node26" class="node">
<title>TRACKK</title>
<polygon fill="#52aef7" stroke="#52aef7" points="1719,-547.67 1601,-547.67 1601,-509.67 1719,-509.67 1719,-547.67"/>
<text text-anchor="middle" x="1660" y="-532.47" font-family="Times,serif" font-size="14.00">Georef</text>
<text text-anchor="middle" x="1660" y="-517.47" font-family="Times,serif" font-size="14.00">Walking Track</text>
</g>
<!-- PRK -->
<g id="node28" class="node">
<title>PRK</title>
<polygon fill="#52aef7" stroke="#52aef7" points="1875,-437.5 1741,-437.5 1741,-401.5 1875,-401.5 1875,-437.5"/>
<text text-anchor="middle" x="1808" y="-415.8" font-family="Times,serif" font-size="14.00">detection record</text>
</g>
<!-- TRACKK&#45;&gt;PRK -->
<g id="edge22" class="edge">
<title>TRACKK&#45;&gt;PRK</title>
<path fill="none" stroke="black" d="M1685.11,-509.49C1710.11,-491.38 1748.59,-463.52 1775.83,-443.8"/>
<polygon fill="black" stroke="black" points="1778.2,-446.4 1784.24,-437.7 1774.09,-440.73 1778.2,-446.4"/>
</g>
<!-- EFFK -->
<g id="node29" class="node">
<title>EFFK</title>
<polygon fill="#52aef7" stroke="#52aef7" points="1722.5,-437.5 1597.5,-437.5 1597.5,-401.5 1722.5,-401.5 1722.5,-437.5"/>
<text text-anchor="middle" x="1660" y="-415.8" font-family="Times,serif" font-size="14.00">sampling effort</text>
</g>
<!-- TRACKK&#45;&gt;EFFK -->
<g id="edge23" class="edge">
<title>TRACKK&#45;&gt;EFFK</title>
<path fill="none" stroke="black" d="M1660,-509.49C1660,-492.56 1660,-467.09 1660,-447.74"/>
<polygon fill="black" stroke="black" points="1663.5,-447.7 1660,-437.7 1656.5,-447.7 1663.5,-447.7"/>
</g>
<!-- KAVANAYEN -->
<g id="node27" class="node">
<title>KAVANAYEN</title>
<polygon fill="#52aef7" stroke="#52aef7" points="1633.5,-659.34 1538.5,-659.34 1538.5,-621.34 1633.5,-621.34 1633.5,-659.34"/>
<text text-anchor="middle" x="1586" y="-644.14" font-family="Times,serif" font-size="14.00">Kavanayen</text>
<text text-anchor="middle" x="1586" y="-629.14" font-family="Times,serif" font-size="14.00">(2018)</text>
</g>
<!-- KAVANAYEN&#45;&gt;TRACKK -->
<g id="edge21" class="edge">
<title>KAVANAYEN&#45;&gt;TRACKK</title>
<path fill="none" stroke="black" d="M1598.22,-621.23C1610.16,-603.53 1628.48,-576.38 1642.07,-556.23"/>
<polygon fill="black" stroke="black" points="1645.07,-558.05 1647.76,-547.81 1639.27,-554.14 1645.07,-558.05"/>
</g>
<!-- CTK -->
<g id="node30" class="node">
<title>CTK</title>
<polygon fill="#52aef7" stroke="#52aef7" points="1565.5,-546.67 1458.5,-546.67 1458.5,-510.67 1565.5,-510.67 1565.5,-546.67"/>
<text text-anchor="middle" x="1512" y="-524.97" font-family="Times,serif" font-size="14.00">Camera trap</text>
</g>
<!-- KAVANAYEN&#45;&gt;CTK -->
<g id="edge15" class="edge">
<title>KAVANAYEN&#45;&gt;CTK</title>
<path fill="none" stroke="black" d="M1573.78,-621.23C1561.62,-603.21 1542.86,-575.4 1529.2,-555.16"/>
<polygon fill="black" stroke="black" points="1532,-553.05 1523.51,-546.72 1526.2,-556.97 1532,-553.05"/>
</g>
<!-- PRK&#45;&gt;OCC4 -->
<g id="edge54" class="edge">
<title>PRK&#45;&gt;OCC4</title>
<path fill="none" stroke="black" d="M1776.59,-401.45C1729.01,-374.07 1638.86,-315.86 1588,-242.5"/>
</g>
<!-- EFFK&#45;&gt;VISIT_COVAR4 -->
<g id="edge41" class="edge">
<title>EFFK&#45;&gt;VISIT_COVAR4</title>
<path fill="none" stroke="black" d="M1620.92,-401.42C1535.82,-364.56 1326.89,-276 1147,-215 1091.61,-196.22 1026.98,-178.42 982.76,-166.85"/>
<polygon fill="black" stroke="black" points="983.36,-163.39 972.8,-164.26 981.6,-170.16 983.36,-163.39"/>
</g>
<!-- PAK -->
<g id="node31" class="node">
<title>PAK</title>
<polygon fill="#52aef7" stroke="#52aef7" points="1579,-437.5 1445,-437.5 1445,-401.5 1579,-401.5 1579,-437.5"/>
<text text-anchor="middle" x="1512" y="-415.8" font-family="Times,serif" font-size="14.00">detection record</text>
</g>
<!-- CTK&#45;&gt;PAK -->
<g id="edge16" class="edge">
<title>CTK&#45;&gt;PAK</title>
<path fill="none" stroke="black" d="M1512,-510.45C1512,-493.58 1512,-467.59 1512,-447.88"/>
<polygon fill="black" stroke="black" points="1515.5,-447.68 1512,-437.68 1508.5,-447.68 1515.5,-447.68"/>
</g>
<!-- CTEK -->
<g id="node32" class="node">
<title>CTEK</title>
<polygon fill="#52aef7" stroke="#52aef7" points="1426.5,-437.5 1301.5,-437.5 1301.5,-401.5 1426.5,-401.5 1426.5,-437.5"/>
<text text-anchor="middle" x="1364" y="-415.8" font-family="Times,serif" font-size="14.00">sampling effort</text>
</g>
<!-- CTK&#45;&gt;CTEK -->
<g id="edge17" class="edge">
<title>CTK&#45;&gt;CTEK</title>
<path fill="none" stroke="black" d="M1488.22,-510.45C1463.19,-492.33 1423.65,-463.69 1395.92,-443.61"/>
<polygon fill="black" stroke="black" points="1397.87,-440.71 1387.72,-437.68 1393.77,-446.38 1397.87,-440.71"/>
</g>
<!-- PAK&#45;&gt;OCC2 -->
<g id="edge48" class="edge">
<title>PAK&#45;&gt;OCC2</title>
<path fill="none" stroke="black" d="M1466.2,-401.49C1456.34,-398.29 1445.91,-395.25 1436,-393 1282.31,-358.1 1097.15,-341.81 1001.74,-335.26"/>
<polygon fill="black" stroke="black" points="1001.89,-331.76 991.67,-334.58 1001.41,-338.75 1001.89,-331.76"/>
</g>
<!-- PAK&#45;&gt;OCC4 -->
<g id="edge55" class="edge">
<title>PAK&#45;&gt;OCC4</title>
<path fill="none" stroke="black" d="M1521.28,-401.21C1543.25,-359.84 1595.98,-257.44 1588,-242.5"/>
<path fill="none" stroke="black" d="M1588,-240.5C1579.13,-227.71 1577.83,-222.13 1564,-215 1497.33,-180.64 1280.94,-163.35 1174.8,-156.76"/>
<polygon fill="black" stroke="black" points="1174.77,-153.25 1164.58,-156.14 1174.35,-160.24 1174.77,-153.25"/>
</g>
<!-- CTEK&#45;&gt;VISIT_COVAR2 -->
<g id="edge35" class="edge">
<title>CTEK&#45;&gt;VISIT_COVAR2</title>
<path fill="none" stroke="black" d="M1301.46,-405.92C1277.33,-401.38 1249.45,-396.51 1224,-393 1055.07,-369.7 1008.18,-395.27 842,-357 840.54,-356.66 839.07,-356.3 837.59,-355.92"/>
<polygon fill="black" stroke="black" points="838.37,-352.51 827.79,-353.14 836.46,-359.24 838.37,-352.51"/>
</g>
<!-- CTEK&#45;&gt;VISIT_COVAR4 -->
<g id="edge42" class="edge">
<title>CTEK&#45;&gt;VISIT_COVAR4</title>
<path fill="none" stroke="black" d="M1345.08,-401.44C1302.41,-363.67 1194.34,-271.82 1091,-215 1056.43,-195.99 1014.76,-180.25 982.47,-169.45"/>
<polygon fill="black" stroke="black" points="983.36,-166.06 972.77,-166.26 981.18,-172.71 983.36,-166.06"/>
</g>
<!-- WARAPATA -->
<g id="node33" class="node">
<title>WARAPATA</title>
<polygon fill="#efdaa2" stroke="#efdaa2" points="1030.5,-733.34 945.5,-733.34 945.5,-695.34 1030.5,-695.34 1030.5,-733.34"/>
<text text-anchor="middle" x="988" y="-718.14" font-family="Times,serif" font-size="14.00">Warapata</text>
<text text-anchor="middle" x="988" y="-703.14" font-family="Times,serif" font-size="14.00">(2015)</text>
</g>
<!-- CTW -->
<g id="node34" class="node">
<title>CTW</title>
<polygon fill="#efdaa2" stroke="#efdaa2" points="967.5,-658.34 860.5,-658.34 860.5,-622.34 967.5,-622.34 967.5,-658.34"/>
<text text-anchor="middle" x="914" y="-636.64" font-family="Times,serif" font-size="14.00">Camera trap</text>
</g>
<!-- WARAPATA&#45;&gt;CTW -->
<g id="edge12" class="edge">
<title>WARAPATA&#45;&gt;CTW</title>
<path fill="none" stroke="black" d="M969.33,-695.17C960.11,-686.21 948.87,-675.27 938.94,-665.6"/>
<polygon fill="black" stroke="black" points="941.26,-662.97 931.65,-658.51 936.37,-667.99 941.26,-662.97"/>
</g>
<!-- TRACKW -->
<g id="node37" class="node">
<title>TRACKW</title>
<polygon fill="#efdaa2" stroke="#efdaa2" points="1121,-659.34 1003,-659.34 1003,-621.34 1121,-621.34 1121,-659.34"/>
<text text-anchor="middle" x="1062" y="-644.14" font-family="Times,serif" font-size="14.00">Georef</text>
<text text-anchor="middle" x="1062" y="-629.14" font-family="Times,serif" font-size="14.00">Walking Track</text>
</g>
<!-- WARAPATA&#45;&gt;TRACKW -->
<g id="edge18" class="edge">
<title>WARAPATA&#45;&gt;TRACKW</title>
<path fill="none" stroke="black" d="M1006.67,-695.17C1015.52,-686.56 1026.25,-676.12 1035.89,-666.74"/>
<polygon fill="black" stroke="black" points="1038.61,-668.98 1043.33,-659.5 1033.72,-663.97 1038.61,-668.98"/>
</g>
<!-- PAW -->
<g id="node35" class="node">
<title>PAW</title>
<polygon fill="#efdaa2" stroke="#efdaa2" points="981,-546.67 847,-546.67 847,-510.67 981,-510.67 981,-546.67"/>
<text text-anchor="middle" x="914" y="-524.97" font-family="Times,serif" font-size="14.00">detection record</text>
</g>
<!-- CTW&#45;&gt;PAW -->
<g id="edge13" class="edge">
<title>CTW&#45;&gt;PAW</title>
<path fill="none" stroke="black" d="M914,-622.2C914,-604.74 914,-577.39 914,-556.94"/>
<polygon fill="black" stroke="black" points="917.5,-556.68 914,-546.68 910.5,-556.68 917.5,-556.68"/>
</g>
<!-- CTEW -->
<g id="node36" class="node">
<title>CTEW</title>
<polygon fill="#efdaa2" stroke="#efdaa2" points="828.5,-546.67 703.5,-546.67 703.5,-510.67 828.5,-510.67 828.5,-546.67"/>
<text text-anchor="middle" x="766" y="-524.97" font-family="Times,serif" font-size="14.00">sampling effort</text>
</g>
<!-- CTW&#45;&gt;CTEW -->
<g id="edge14" class="edge">
<title>CTW&#45;&gt;CTEW</title>
<path fill="none" stroke="black" d="M866.58,-622.3C856.73,-617.81 846.71,-612.46 838,-606.34 817.65,-592.02 798.57,-571.23 785.17,-554.9"/>
<polygon fill="black" stroke="black" points="787.69,-552.45 778.7,-546.83 782.22,-556.83 787.69,-552.45"/>
</g>
<!-- PAW&#45;&gt;OCC1 -->
<g id="edge46" class="edge">
<title>PAW&#45;&gt;OCC1</title>
<path fill="none" stroke="black" d="M917.86,-510.45C921.14,-495.77 925.97,-474.2 930.08,-455.87"/>
<polygon fill="black" stroke="black" points="933.5,-456.6 932.27,-446.07 926.67,-455.07 933.5,-456.6"/>
</g>
<!-- PAW&#45;&gt;OCC2 -->
<g id="edge49" class="edge">
<title>PAW&#45;&gt;OCC2</title>
<path fill="none" stroke="black" d="M940.6,-510.55C966.65,-492 1004.6,-459.72 1020,-420.5"/>
<path fill="none" stroke="black" d="M1020,-418.5C1028.4,-397.11 1014.2,-377.96 995.38,-363.1"/>
<polygon fill="black" stroke="black" points="997.22,-360.11 987.09,-357 993.07,-365.75 997.22,-360.11"/>
</g>
<!-- PAW&#45;&gt;OCC3 -->
<g id="edge51" class="edge">
<title>PAW&#45;&gt;OCC3</title>
<path fill="none" stroke="black" d="M1020,-418.5C1038.14,-372.29 1025.08,-314.42 1012.93,-277.94"/>
<polygon fill="black" stroke="black" points="1016.15,-276.54 1009.56,-268.25 1009.54,-278.85 1016.15,-276.54"/>
</g>
<!-- PAW&#45;&gt;OCC4 -->
<g id="edge56" class="edge">
<title>PAW&#45;&gt;OCC4</title>
<path fill="none" stroke="black" d="M1020,-418.5C1052.59,-337.28 1086.07,-240.03 1103.25,-188.91"/>
<polygon fill="black" stroke="black" points="1106.6,-189.92 1106.46,-179.32 1099.96,-187.69 1106.6,-189.92"/>
</g>
<!-- CTEW&#45;&gt;VISIT_COVAR1 -->
<g id="edge33" class="edge">
<title>CTEW&#45;&gt;VISIT_COVAR1</title>
<path fill="none" stroke="black" d="M766,-510.45C766,-495.84 766,-474.4 766,-456.12"/>
<polygon fill="black" stroke="black" points="769.5,-456.07 766,-446.07 762.5,-456.07 769.5,-456.07"/>
</g>
<!-- CTEW&#45;&gt;VISIT_COVAR2 -->
<g id="edge36" class="edge">
<title>CTEW&#45;&gt;VISIT_COVAR2</title>
<path fill="none" stroke="black" d="M791.91,-510.37C816.67,-491.68 850.97,-459.29 856,-420.5"/>
<path fill="none" stroke="black" d="M856,-418.5C858.85,-396.54 845.08,-377.78 828.06,-363.36"/>
<polygon fill="black" stroke="black" points="830.08,-360.49 820.06,-357.05 825.74,-365.99 830.08,-360.49"/>
</g>
<!-- CTEW&#45;&gt;VISIT_COVAR3 -->
<g id="edge38" class="edge">
<title>CTEW&#45;&gt;VISIT_COVAR3</title>
<path fill="none" stroke="black" d="M856,-418.5C860.97,-380.15 863.29,-369.47 856,-331.5"/>
<path fill="none" stroke="black" d="M856,-329.5C852.05,-308.96 838.94,-290.35 825.04,-275.67"/>
<polygon fill="black" stroke="black" points="827.29,-272.96 817.75,-268.36 822.33,-277.91 827.29,-272.96"/>
</g>
<!-- CTEW&#45;&gt;VISIT_COVAR4 -->
<g id="edge43" class="edge">
<title>CTEW&#45;&gt;VISIT_COVAR4</title>
<path fill="none" stroke="black" d="M856,-329.5C846.03,-277.59 877.2,-222.05 902.12,-187.55"/>
<polygon fill="black" stroke="black" points="905.14,-189.36 908.3,-179.25 899.52,-185.18 905.14,-189.36"/>
</g>
<!-- PRW -->
<g id="node38" class="node">
<title>PRW</title>
<polygon fill="#efdaa2" stroke="#efdaa2" points="1277,-546.67 1143,-546.67 1143,-510.67 1277,-510.67 1277,-546.67"/>
<text text-anchor="middle" x="1210" y="-524.97" font-family="Times,serif" font-size="14.00">detection record</text>
</g>
<!-- TRACKW&#45;&gt;PRW -->
<g id="edge19" class="edge">
<title>TRACKW&#45;&gt;PRW</title>
<path fill="none" stroke="black" d="M1107.92,-621.3C1116.89,-616.96 1126,-611.93 1134,-606.34 1154.93,-591.71 1175.11,-570.94 1189.41,-554.7"/>
<polygon fill="black" stroke="black" points="1192.45,-556.54 1196.32,-546.68 1187.14,-551.97 1192.45,-556.54"/>
</g>
<!-- EFFW -->
<g id="node39" class="node">
<title>EFFW</title>
<polygon fill="#efdaa2" stroke="#efdaa2" points="1124.5,-546.67 999.5,-546.67 999.5,-510.67 1124.5,-510.67 1124.5,-546.67"/>
<text text-anchor="middle" x="1062" y="-524.97" font-family="Times,serif" font-size="14.00">sampling effort</text>
</g>
<!-- TRACKW&#45;&gt;EFFW -->
<g id="edge20" class="edge">
<title>TRACKW&#45;&gt;EFFW</title>
<path fill="none" stroke="black" d="M1062,-621.23C1062,-603.69 1062,-576.89 1062,-556.81"/>
<polygon fill="black" stroke="black" points="1065.5,-556.72 1062,-546.72 1058.5,-556.72 1065.5,-556.72"/>
</g>
<!-- PRW&#45;&gt;OCC3 -->
<g id="edge52" class="edge">
<title>PRW&#45;&gt;OCC3</title>
<path fill="none" stroke="black" d="M1212.11,-510.38C1214.23,-489.02 1216.38,-451.67 1210,-420.5"/>
<path fill="none" stroke="black" d="M1210,-418.5C1194.58,-343.13 1114.85,-292.87 1057.96,-266"/>
<polygon fill="black" stroke="black" points="1059.23,-262.73 1048.68,-261.73 1056.3,-269.09 1059.23,-262.73"/>
</g>
<!-- PRW&#45;&gt;OCC4 -->
<g id="edge57" class="edge">
<title>PRW&#45;&gt;OCC4</title>
<path fill="none" stroke="black" d="M1210,-418.5C1201.71,-367.17 1202.54,-353.29 1186,-304 1172.19,-262.85 1150.14,-218.16 1134.27,-188.27"/>
<polygon fill="black" stroke="black" points="1137.17,-186.26 1129.36,-179.1 1131,-189.57 1137.17,-186.26"/>
</g>
<!-- EFFW&#45;&gt;VISIT_COVAR3 -->
<g id="edge39" class="edge">
<title>EFFW&#45;&gt;VISIT_COVAR3</title>
<path fill="none" stroke="black" d="M1074.29,-510.53C1087.99,-490.21 1109.26,-454.77 1117,-420.5"/>
<path fill="none" stroke="black" d="M1117,-418.5C1132.96,-347.84 1063.57,-340.5 1001,-304 949.81,-274.13 883.26,-258.05 837.63,-249.92"/>
<polygon fill="black" stroke="black" points="838.1,-246.45 827.66,-248.2 836.92,-253.34 838.1,-246.45"/>
</g>
<!-- EFFW&#45;&gt;VISIT_COVAR4 -->
<g id="edge44" class="edge">
<title>EFFW&#45;&gt;VISIT_COVAR4</title>
<path fill="none" stroke="black" d="M1117,-418.5C1126.21,-372.33 1088.42,-250.93 1058,-215 1038.51,-191.98 1008.4,-176.91 982.29,-167.46"/>
<polygon fill="black" stroke="black" points="983.1,-164.03 972.5,-164.1 980.83,-170.66 983.1,-164.03"/>
</g>
<!-- PFST&#45;&gt;SITE_COVARS -->
<g id="edge24" class="edge">
<title>PFST&#45;&gt;SITE_COVARS</title>
<path fill="none" stroke="black" d="M439.39,-492.58C430.08,-477.45 419.38,-460.09 410.83,-446.2"/>
<polygon fill="black" stroke="black" points="413.77,-444.31 405.55,-437.63 407.81,-447.98 413.77,-444.31"/>
</g>
<!-- DDFR&#45;&gt;SITE_COVARS -->
<g id="edge25" class="edge">
<title>DDFR&#45;&gt;SITE_COVARS</title>
<path fill="none" stroke="black" d="M536.1,-495.74C528.84,-488 520.57,-480.18 512,-474 493.94,-460.97 472.2,-449.98 452.38,-441.41"/>
<polygon fill="black" stroke="black" points="453.71,-438.17 443.14,-437.52 451,-444.62 453.71,-438.17"/>
</g>
<!-- DFIRE&#45;&gt;SITE_COVARS -->
<g id="edge26" class="edge">
<title>DFIRE&#45;&gt;SITE_COVARS</title>
<path fill="none" stroke="black" d="M373.45,-490.49C377.83,-476.27 382.73,-460.35 386.75,-447.29"/>
<polygon fill="black" stroke="black" points="390.16,-448.1 389.76,-437.52 383.47,-446.04 390.16,-448.1"/>
</g>
<!-- DCOM&#45;&gt;SITE_COVARS -->
<g id="edge27" class="edge">
<title>DCOM&#45;&gt;SITE_COVARS</title>
<path fill="none" stroke="black" d="M289.68,-495.03C297.05,-487.81 305.09,-480.4 313,-474 326.68,-462.93 342.7,-452.07 356.94,-443.05"/>
<polygon fill="black" stroke="black" points="358.9,-445.95 365.54,-437.69 355.2,-440.01 358.9,-445.95"/>
</g>
<!-- DCON&#45;&gt;SITE_COVARS -->
<g id="edge28" class="edge">
<title>DCON&#45;&gt;SITE_COVARS</title>
<path fill="none" stroke="black" d="M179.65,-493.19C187.35,-486.05 196,-479.15 205,-474 241.3,-453.25 286.17,-440.12 323.18,-432.07"/>
<polygon fill="black" stroke="black" points="324.33,-435.41 333.4,-429.93 322.9,-428.55 324.33,-435.41"/>
</g>
</g>
</svg>
